<svg width="32" height="33" viewBox="0 0 32 33" fill="none" xmlns="http://www.w3.org/2000/svg">
<path d="M31.9778 15.8265C31.9778 15.1588 31.9066 14.4989 31.762 13.8468C31.7553 13.7727 31.7547 13.698 31.7408 13.625C31.3057 11.3257 30.4095 9.22188 29.062 7.31238C28.3058 6.24188 27.4471 5.26248 26.4332 4.42728C26.3664 4.36328 26.3031 4.29538 26.2324 4.23688C23.4259 1.91855 20.209 0.66558 16.5719 0.5145C15.5556 0.47238 14.5416 0.517311 13.5389 0.711631C13.4554 0.718371 13.3707 0.718371 13.2889 0.733541C11.1477 1.13846 9.13591 1.88093 7.31817 3.09964C3.42539 5.70888 1.01678 9.31958 0.226436 13.9479C-0.306052 17.0666 0.103127 20.092 1.42204 22.9878C4.41296 29.5542 11.5933 33.8888 19.3706 32.0916C25.6058 30.6505 29.6174 26.681 31.4689 20.5453C31.9319 19.0109 32.0568 17.4266 31.9778 15.8265ZM30.3002 20.2083C28.6057 25.674 25.0952 29.4076 19.518 30.7679C13.3029 32.2831 8.16172 30.2495 4.22573 25.2376C2.18602 22.6407 1.15523 19.6405 1.21576 16.3224C1.29143 12.1973 2.89842 8.71308 5.84565 5.86228C7.84225 3.93084 10.2166 2.65933 12.9369 2.0584C12.9722 2.05053 13.0046 2.03144 13.0389 2.0174C13.0545 2.032 13.0708 2.04323 13.0877 2.05166C13.1027 2.03256 13.119 2.01628 13.1364 2.00392C13.8057 1.91294 14.4722 1.79612 15.1481 1.75962C18.9927 1.55519 22.3873 2.71212 25.3659 5.13948C26.3261 5.92178 27.1798 6.81588 27.8972 7.81328C29.3759 9.87108 30.3899 12.1367 30.7004 14.6848C30.8125 15.6013 30.8271 16.5185 30.8002 17.4384H30.7985C30.7985 17.4384 30.7934 17.4412 30.7906 17.4434C30.7934 17.4474 30.7962 17.4513 30.7996 17.4547C30.6981 18.3847 30.5782 19.3125 30.3002 20.2083Z" fill="white"/>
<path d="M28.4319 16.3248C24.3564 12.2733 20.2786 8.22397 16.207 4.16847C16.05 4.01237 15.9726 3.98541 15.7989 4.15947C12.8208 7.14117 9.83494 10.115 6.85018 13.0904C5.77229 14.1648 4.6927 15.2381 3.61372 16.3119C3.48527 16.3933 3.37997 16.4781 3.56771 16.6084C3.73308 16.7662 3.89846 16.9235 4.06374 17.0813C4.13889 17.1633 4.21065 17.2487 4.28909 17.3273C8.11301 21.1384 11.9397 24.9479 15.7585 28.7652C15.9469 28.9534 16.0377 28.991 16.249 28.7787C18.4361 26.5805 20.6384 24.397 22.834 22.2066C23.7392 21.3036 24.6372 20.3937 25.5385 19.4867C26.524 18.5179 27.5076 17.5474 28.4964 16.5826C28.6416 16.4405 28.4998 16.3927 28.4319 16.3248ZM16.6111 26.4823V23.9022C16.61 22.9761 16.61 22.0494 16.6089 21.1233V21.1025C16.6083 20.6234 16.6083 20.1449 16.6072 19.6664V19.6462C16.6066 19.1144 16.606 18.5825 16.6049 18.0507V18.045C16.6049 17.8311 16.6044 17.6176 16.6038 17.4037V17.3806C16.6038 17.2397 16.61 17.1549 16.8134 17.1554C18.805 17.1616 20.7965 17.1627 22.7875 17.1633H22.8042C23.7936 17.1633 24.783 17.1633 25.7722 17.1639C25.807 17.1639 25.8418 17.17 25.9393 17.1785C22.8447 20.3089 19.7607 23.3799 16.6111 26.4823ZM16.6134 6.55817C16.7377 6.59577 16.8033 6.68737 16.8784 6.76097C17.8992 7.76287 18.9182 8.76707 19.9384 9.76957C20.0045 9.83467 20.0762 9.89367 20.1452 9.95547C20.1783 9.98797 20.2113 10.02 20.2444 10.0521C20.3638 10.2026 20.4978 10.339 20.6519 10.4542C20.6704 10.5036 20.7041 10.5379 20.7539 10.5553C20.7791 10.612 20.8195 10.653 20.8766 10.6766C21.334 11.1416 21.7869 11.6106 22.2488 12.0711C23.246 13.064 24.2476 14.053 25.2471 15.0432C25.2689 15.0993 25.3075 15.1392 25.3636 15.1611C25.3821 15.2139 25.4174 15.2499 25.4701 15.2684C25.492 15.3251 25.5307 15.3644 25.5873 15.3863C25.6064 15.4386 25.6417 15.4739 25.6938 15.493C25.7555 15.5711 25.8171 15.6486 25.8776 15.725C25.8182 15.7997 25.7476 15.7677 25.6882 15.7677C22.765 15.7682 19.8413 15.7643 16.9183 15.7705C16.6873 15.771 16.6032 15.7385 16.6044 15.4734C16.6089 13.9896 16.6094 12.5052 16.6083 11.0214V11.0057C16.6122 10.8018 16.6167 10.6002 16.6267 10.3963C16.6357 10.2059 16.6212 10.0133 16.6077 9.82007V9.80487C16.6066 8.77437 16.6049 7.74437 16.6044 6.71377C16.6044 6.66887 16.6094 6.62337 16.6134 6.55817ZM15.2759 6.66207C15.3106 6.72667 15.323 6.80077 15.3196 6.88957C15.3179 6.93277 15.3151 6.99117 15.3292 7.03617V7.66007C15.2872 7.72857 15.3191 7.82687 15.3191 7.90107C15.3129 10.4463 15.314 12.9916 15.314 15.5368C15.314 15.5784 15.3163 15.6194 15.3213 15.6587C15.3039 15.7306 15.2535 15.7733 15.1083 15.7727C12.1868 15.7637 9.26545 15.7665 6.34337 15.7665H6.13099C9.18251 12.6962 12.1902 9.68527 15.2759 6.66207ZM15.3303 26.2801C15.3303 26.3048 15.3219 26.3289 15.309 26.4036C12.2014 23.3546 9.15896 20.2915 6.07829 17.161H7.70161C10.1566 17.161 12.6123 17.1622 15.068 17.1594C15.2328 17.1594 15.337 17.1526 15.3365 17.3834C15.3275 20.3488 15.3309 23.3142 15.3303 26.2801Z" fill="white"/>
<path d="M11.5574 26.0403C10.9509 26.0425 10.3438 26.0464 9.73742 26.033C7.88874 25.9908 6.56144 24.6469 6.53849 22.7975C6.5312 22.1898 6.53619 21.5821 6.53399 20.9739C6.53399 20.8829 6.55196 20.7863 6.47461 20.7105C6.11701 20.3612 5.76101 20.0113 5.36249 19.6204C5.41179 20.8037 5.33444 21.9258 5.4096 23.0474C5.56599 25.3731 7.31197 27.0939 9.63482 27.1663C10.6886 27.1989 11.7441 27.1759 12.7989 27.177C12.8404 27.177 12.8936 27.1927 12.9206 27.1242C12.5853 26.8069 12.2451 26.4896 11.9111 26.1655C11.8085 26.0655 11.6953 26.0397 11.5574 26.0403Z" fill="white"/>
<path d="M20.4753 6.9644C21.0638 6.9576 21.6519 6.9548 22.2398 6.9666C23.9202 6.9992 25.3115 8.2617 25.4943 9.937C25.5671 10.607 25.5076 11.2832 25.5178 11.9561C25.5189 12.0482 25.487 12.1498 25.5502 12.229C25.8821 12.639 26.2688 12.9939 26.6663 13.3522C26.6517 12.1161 26.7778 10.8912 26.5934 9.6764C26.2958 7.7119 24.7729 6.1455 22.8984 5.8979C21.6474 5.7322 20.3868 5.8731 19.1306 5.8203C19.4529 6.1624 19.759 6.478 20.0538 6.8032C20.1726 6.934 20.3066 6.9666 20.4753 6.9644Z" fill="white"/>
<path d="M6.3877 12.3262C6.50038 12.2099 6.53571 12.0835 6.53292 11.924C6.52334 11.3911 6.52284 10.8581 6.52673 10.3251C6.5419 8.41335 7.93368 7.00135 9.84334 6.96605C10.4218 6.95585 11.0003 6.96765 11.5787 6.96715C11.6617 6.96715 11.7772 6.98735 11.8226 6.94295C12.1868 6.58075 12.5384 6.20615 12.8859 5.84225C11.7855 5.84225 10.674 5.79505 9.56758 5.85235C7.37706 5.96635 5.64725 7.65795 5.4197 9.84595C5.29973 11.0024 5.39844 12.1627 5.41461 13.3556C5.73867 13.0119 6.05924 12.6654 6.3877 12.3262Z" fill="white"/>
<path d="M26.6596 21.5233C26.6691 20.9032 26.6618 20.2832 26.6618 19.593C26.3065 19.9597 25.9723 20.2501 25.6921 20.5949C25.5301 20.6926 25.4915 20.8398 25.4909 21.0229C25.4898 21.7805 25.5626 22.5437 25.46 23.2946C25.2482 24.8464 23.9903 25.9651 22.4113 26.0303C21.7494 26.0578 21.0857 26.0359 20.4226 26.037C20.3217 26.0376 20.2203 26.0196 20.1357 26.1078C19.7965 26.4599 19.4529 26.8081 19.079 27.1906C20.347 27.1591 21.5768 27.2389 22.8048 27.1366C22.9713 27.1232 23.1378 27.0883 23.3009 27.0513C25.1333 26.6329 26.5823 24.9154 26.6041 23.139C26.6147 23.1132 26.626 23.0885 26.626 23.0593V23.0121C26.7016 22.5179 26.6523 22.0192 26.6596 21.5233Z" fill="white"/>
</svg>
